<svg width="24" height="24" viewBox="0 0 24 24" fill="none" xmlns="http://www.w3.org/2000/svg">
<path opacity="0.4" d="M20.4612 15.9579H13.8857C13.0535 15.9579 12.3779 16.6217 12.3779 17.4393C12.3779 18.2558 13.0535 18.9206 13.8857 18.9206H20.4612C21.2934 18.9206 21.969 18.2558 21.969 17.4393C21.969 16.6217 21.2934 15.9579 20.4612 15.9579Z" fill="#56555C"/>
<path opacity="0.4" d="M21.9679 6.1399C21.9679 5.32337 21.2923 4.65967 20.4612 4.65967H13.8857C13.0535 4.65967 12.3779 5.32337 12.3779 6.1399C12.3779 6.95753 13.0535 7.62123 13.8857 7.62123H20.4612C21.2923 7.62123 21.9679 6.95753 21.9679 6.1399Z" fill="#56555C"/>
<path d="M8.87774 6.13991C8.87774 8.00658 7.33886 9.51957 5.43887 9.51957C3.53999 9.51957 2 8.00658 2 6.13991C2 4.27434 3.53999 2.76135 5.43887 2.76135C7.33886 2.76135 8.87774 4.27434 8.87774 6.13991Z" fill="#56555C"/>
<path d="M8.87774 17.3992C8.87774 19.2648 7.33886 20.7777 5.43887 20.7777C3.53999 20.7777 2 19.2648 2 17.3992C2 15.5325 3.53999 14.0195 5.43887 14.0195C7.33886 14.0195 8.87774 15.5325 8.87774 17.3992Z" fill="#56555C"/>
</svg>
